<svg xmlns="http://www.w3.org/2000/svg" width="385" height="330" viewBox="0 0 385 330" fill="none">
  <path d="M144.118 120.981L184.277 167.386L231.605 120.899H221.862V103.467C221.862 15.228 157.939 5.69971 130.453 5.69971L129.79 5.70182C90.5087 5.89567 54.2528 26.3514 30.3207 61.8245C9.87568 92.1288 1.47067 128.607 7.10798 160.087C16.7759 111.535 54.1589 62.6357 99.8849 62.6357L100.742 62.642C119.94 62.9033 136.642 70.2803 146.566 82.8829C154.418 92.8558 157.401 105.216 155.191 118.619L154.801 120.981H144.118ZM183.965 175.482L131.868 115.282H150.195C151.428 104.489 148.756 94.5899 142.408 86.5239C133.497 75.2067 118.286 68.5798 100.672 68.3417L99.8849 68.3354C52.7301 68.3354 14.9335 124.216 10.5052 174.367L5.25552 175.024C-6.34484 139.246 1.57058 94.6026 25.9163 58.5184C50.8696 21.5346 88.7202 0.206495 129.764 0.00210594L130.453 0C158.095 0 181.503 8.18187 198.149 23.6585C217.471 41.6258 227.267 68.4766 227.267 103.467V115.199H245.338L183.965 175.482Z" fill="#3478B7"/>
  <path d="M286.497 96.8114H266.276L328.208 35.4968L384.452 96.8114H364.86C368.023 187.425 305.194 326.688 166.799 326.688C97.2831 326.688 68.9978 302.5 56.1584 291.868C37.9999 276.831 -2.95844 220.304 6.99729 169.332C24.6886 216.642 60.8965 274.714 134.833 274.714C254.268 274.714 294.083 142.78 286.497 96.8114Z" fill="#3478B7"/>
  <path d="M183.548 261.751C205.322 261.751 222.972 243.141 222.972 220.178C222.972 197.225 205.322 178.607 183.548 178.607C161.774 178.607 144.121 197.225 144.121 220.178C144.121 243.141 161.774 261.751 183.548 261.751Z" fill="#E69627"/>
  <path d="M27.6397 191.299L35.5371 146.567H44.5437L36.6482 191.299H27.6397Z" fill="#141214"/>
  <path d="M42.7298 191.299L49.6061 152.362C50.2675 148.592 53.1271 145.846 56.96 145.846C61.2764 145.846 62.6692 149.294 63.5964 152.307L69.9871 175.228H70.169L75.2288 146.567H84.2353L77.347 185.569C76.7415 189.01 74.993 192.015 71.1602 192.015C67.3873 192.015 66.2362 189.588 64.9693 185.361L57.5195 159.22L57.3796 159.342L51.7323 191.299H42.7298Z" fill="#141214"/>
  <path d="M81.5295 191.299L86.8651 161.074C88.3019 152.922 95.0903 145.846 104.327 145.846C113.133 145.846 117.905 152.602 116.409 161.074C114.936 169.425 108.061 176.313 98.9491 176.313H95.6678L97.2465 167.381C102.284 167.381 106.413 166.684 107.39 161.144C108.095 157.13 106.273 154.77 102.75 154.77C99.2288 154.77 96.567 157.13 95.8596 161.144L90.534 191.299H81.5295Z" fill="#141214"/>
  <path d="M144.619 155.487H139.167C132.321 155.487 128.168 160.483 126.686 164.773H142.98L141.509 173.09H125.215C125.183 177.38 127.575 182.372 134.419 182.372H139.873L138.298 191.3H133.632C119.094 191.3 114.796 179.944 116.744 168.933C118.686 157.923 126.991 146.564 141.529 146.564H146.193L144.619 155.487Z" fill="#141214"/>
</svg>
