<svg xmlns="http://www.w3.org/2000/svg" width="240" height="330" viewBox="380 0 242 330" fill="none">
  <path d="M494.135 277.212C485.442 288.197 474.983 294.613 463.724 294.613C433.553 294.613 409.094 248.568 409.094 191.776C409.094 119.607 463.724 44.5293 463.724 44.5293C463.724 44.5293 498.224 92.6092 512.39 148.043C519.574 159.866 530.031 167.382 540.738 167.382C541.172 167.382 541.6 167.352 542.027 167.327C530.063 82.611 463.724 0.377125 463.724 0.377125C463.724 0.377125 383.577 98.3384 383.577 192.509C383.577 266.616 419.461 326.687 463.724 326.687C480.742 326.687 496.517 317.804 509.492 302.666C504.668 295.171 499.437 286.616 494.135 277.212Z" fill="#E69627"/>
  <path d="M541.68 1.38896C524.619 1.38896 508.804 10.3146 495.801 25.5195C500.928 33.478 506.518 42.6355 512.165 52.7432C520.138 44.003 530.026 38.828 540.739 38.828C567.161 38.828 588.579 70.3144 588.579 109.159C588.579 148.003 567.161 179.492 540.739 179.492C519.775 179.492 501.973 159.662 495.507 132.074C487.963 110.339 477.979 90.6332 469.754 76.1848C464.451 94.1204 461.465 114.319 461.465 135.685C461.465 228.551 541.68 327.977 541.68 327.977C541.68 327.977 621.896 229.934 621.896 135.685C621.896 61.5151 585.982 1.38896 541.68 1.38896Z" fill="#CF4C39"/>
</svg>
